<svg xmlns="http://www.w3.org/2000/svg" viewBox="0 0 20 16">
  <path fill="#2fdf84" d="M17.25 7.25h-2.5a2 2 0 0 1-2-2v-2.5a2 2 0 0 1 2-2h2.5a2 2 0 0 1 2 2v2.5a2 2 0 0 1-2 2Z" data-name="Path 124"/>
  <path fill="#2fdf84" d="M5.25 7.25h-2.5a2 2 0 0 1-2-2v-2.5a2 2 0 0 1 2-2h2.5a2 2 0 0 1 2 2v2.5a2 2 0 0 1-2 2Z" data-name="Path 125"/>
  <path fill="#00b871" d="M15 5.25v-2.5a2 2 0 0 1 2-2h-2.25a2 2 0 0 0-2 2v2.5a2 2 0 0 0 2 2H17a2 2 0 0 1-2-2Z" data-name="Path 126"/>
  <path fill="#00b871" d="M3 5.25v-2.5a2 2 0 0 1 2-2H2.75a2 2 0 0 0-2 2v2.5a2 2 0 0 0 2 2H5a2 2 0 0 1-2-2Z" data-name="Path 127"/>
  <path fill="#020f60" d="M17.25 8h-2.5A2.752 2.752 0 0 1 12 5.25v-2.5A2.752 2.752 0 0 1 14.75 0h2.5A2.752 2.752 0 0 1 20 2.75v2.5A2.752 2.752 0 0 1 17.25 8Zm-2.5-6.5a1.252 1.252 0 0 0-1.25 1.25v2.5a1.252 1.252 0 0 0 1.25 1.25h2.5a1.252 1.252 0 0 0 1.25-1.25v-2.5a1.252 1.252 0 0 0-1.25-1.25Z" data-name="Path 133"/>
  <path fill="#020f60" d="M14.25 16h-1.5v-1.5h1.5a4.255 4.255 0 0 0 4.25-4.25v-5H20v5A5.757 5.757 0 0 1 14.25 16Z" data-name="Path 134"/>
  <path fill="#020f60" d="M5.25 8h-2.5A2.752 2.752 0 0 1 0 5.25v-2.5A2.752 2.752 0 0 1 2.75 0h2.5A2.752 2.752 0 0 1 8 2.75v2.5A2.752 2.752 0 0 1 5.25 8Zm-2.5-6.5A1.252 1.252 0 0 0 1.5 2.75v2.5A1.252 1.252 0 0 0 2.75 6.5h2.5A1.252 1.252 0 0 0 6.5 5.25v-2.5A1.252 1.252 0 0 0 5.25 1.5Z" data-name="Path 135"/>
  <path fill="#020f60" d="M2.25 16H.75v-1.5h1.5a4.255 4.255 0 0 0 4.25-4.25v-5H8v5A5.757 5.757 0 0 1 2.25 16Z" data-name="Path 136"/>
</svg>