<svg xmlns="http://www.w3.org/2000/svg" viewBox="0 0 24 24">
  <g transform="translate(-6 -6)">
    <path fill="#f3f3f1" d="M7.75 29.25h20.5a1 1 0 001-1v-12.5a1 1 0 00-1-1H7.75a1 1 0 00-1 1v12.5a1 1 0 001 1z"/>
    <path fill="#2fdf84" d="M19.747 26.25h5.506a1 1 0 001-1v-6.5a1 1 0 00-1-1h-5.506a1 1 0 00-1 1v6.5a1 1 0 001 1z"/>
    <circle cx="1.75" cy="1.75" r="1.75" fill="#2fdf84" transform="translate(24.75 6.75)"/>
    <path fill="#2fdf84" d="M20.25 11.25H7.75a1 1 0 01-1-1v-2.5a1 1 0 011-1h12.5a1 1 0 011 1v2.5a1 1 0 01-1 1z"/>
  </g>
  <path fill="#d5dbe1" d="M3 22.25V9.75a1 1 0 011-1H1.75a1 1 0 00-1 1v12.5a1 1 0 001 1H4a1 1 0 01-1-1z"/>
  <path fill="#00b871" d="M15 19.25v-6.5a1 1 0 011-1h-2.25a1 1 0 00-1 1v6.5a1 1 0 001 1H16a1 1 0 01-1-1zM3 4.25v-2.5a1 1 0 011-1H1.75a1 1 0 00-1 1v2.5a1 1 0 001 1H4a1 1 0 01-1-1z"/>
  <g fill="#020f60">
    <path d="M19.253 21h-5.506A1.752 1.752 0 0112 19.25v-6.5A1.752 1.752 0 0113.747 11h5.506A1.752 1.752 0 0121 12.75v6.5A1.752 1.752 0 0119.253 21zm-5.506-8.5a.25.25 0 00-.25.25v6.5a.25.25 0 00.25.25h5.506a.25.25 0 00.25-.25v-6.5a.25.25 0 00-.25-.25zM3.75 12h5.5v1.5h-5.5zM3.75 15h5.5v1.5h-5.5zM3.75 18h5.5v1.5h-5.5z"/>
    <path d="M22.25 24H1.75A1.752 1.752 0 010 22.25V9.75A1.752 1.752 0 011.75 8h20.5A1.752 1.752 0 0124 9.75v12.5A1.752 1.752 0 0122.25 24zM1.75 9.5a.25.25 0 00-.25.25v12.5a.25.25 0 00.25.25h20.5a.25.25 0 00.25-.25V9.75a.25.25 0 00-.25-.25zM20.5 5A2.5 2.5 0 1123 2.5 2.5 2.5 0 0120.5 5zm0-3.5a1 1 0 101 1 1 1 0 00-1-1z"/>
    <path d="M21.37 4.431l1.06-1.06 1.35 1.35-1.06 1.06zM14.25 6H1.75A1.752 1.752 0 010 4.25v-2.5A1.752 1.752 0 011.75 0h12.5A1.752 1.752 0 0116 1.75v2.5A1.752 1.752 0 0114.25 6zM1.75 1.5a.25.25 0 00-.25.25v2.5a.25.25 0 00.25.25h12.5a.25.25 0 00.25-.25v-2.5a.25.25 0 00-.25-.25z"/>
  </g>
</svg>