<svg xmlns="http://www.w3.org/2000/svg" viewBox="0 0 22.906 24">
  <g transform="translate(-271.547 -299.415)">
    <path fill="#f3f3f1" d="M293.389 314.389a1 1 0 01.186 1.213l-1.663 2.876a.974.974 0 01-1.145.44l-2.2-.695a8.451 8.451 0 01-2.446 1.418l-.509 2.26a.974.974 0 01-.949.763h-3.327a.974.974 0 01-.949-.763l-.509-2.26a8.5 8.5 0 01-2.446-1.418l-2.2.695a.974.974 0 01-1.145-.44l-1.664-2.876a1 1 0 01.186-1.213l1.691-1.555a10.051 10.051 0 01-.1-1.419 9.6 9.6 0 01.1-1.418l-1.688-1.555a1 1 0 01-.186-1.213l1.663-2.876a.974.974 0 011.145-.44l2.2.695a8.451 8.451 0 012.446-1.418l.509-2.26a.974.974 0 01.949-.763h3.326a.974.974 0 01.949.763l.509 2.26a8.5 8.5 0 012.446 1.418l2.2-.695a.974.974 0 011.145.44l1.663 2.876a1 1 0 01-.186 1.213l-1.69 1.555a9.748 9.748 0 01.108 1.418 9.6 9.6 0 01-.108 1.418z"/>
    <path fill="#f3f3f1" d="M293.389 314.389a1 1 0 01.186 1.213l-1.663 2.876a.974.974 0 01-1.145.44l-2.2-.695a8.451 8.451 0 01-2.446 1.418l-.509 2.26a.974.974 0 01-.949.763h-3.327a.974.974 0 01-.949-.763l-.509-2.26a8.5 8.5 0 01-2.446-1.418l-2.2.695a.974.974 0 01-1.145-.44l-1.664-2.876a1 1 0 01.186-1.213l1.691-1.555a10.051 10.051 0 01-.1-1.419 9.6 9.6 0 01.1-1.418l-1.688-1.555a1 1 0 01-.186-1.213l1.663-2.876a.974.974 0 011.145-.44l2.2.695a8.451 8.451 0 012.446-1.418l.509-2.26a.974.974 0 01.949-.763h3.326a.974.974 0 01.949.763l.509 2.26a8.5 8.5 0 012.446 1.418l2.2-.695a.974.974 0 011.145.44l1.663 2.876a1 1 0 01-.186 1.213l-1.69 1.555a9.748 9.748 0 01.108 1.418 9.6 9.6 0 01-.108 1.418z"/>
    <g fill="#d5dbe1">
      <path d="M279.684 304.606a8.476 8.476 0 012.446-1.419l.509-2.26a.974.974 0 01.949-.763h-2.25a.974.974 0 00-.949.763l-.509 2.26a8.262 8.262 0 00-1.773.921zM276.338 318.478l-1.663-2.876a1 1 0 01.186-1.213l1.692-1.555a9.751 9.751 0 01-.108-1.419 9.613 9.613 0 01.108-1.419l-1.692-1.555a1 1 0 01-.186-1.213l1.663-2.876a.83.83 0 01.06-.073l-1.165-.364a.974.974 0 00-1.145.44l-1.663 2.872a1 1 0 00.186 1.213l1.689 1.555a9.786 9.786 0 00-.1 1.42 9.623 9.623 0 00.1 1.419l-1.688 1.555a1 1 0 00-.186 1.213l1.663 2.876a.974.974 0 001.145.44l1.165-.368a.7.7 0 01-.061-.072zM282.638 321.902l-.509-2.26a8.476 8.476 0 01-2.446-1.419l-1.578.5a8.285 8.285 0 001.773.921l.509 2.26a.974.974 0 00.949.763h2.25a.974.974 0 01-.948-.763z"/>
    </g>
    <circle cx="4.25" cy="4.25" r="4.25" fill="#2fdf84" transform="translate(278.75 307.165)"/>
    <path fill="#00b871" d="M281 311.415a4.238 4.238 0 013.125-4.08 4.251 4.251 0 100 8.16 4.238 4.238 0 01-3.125-4.08z"/>
    <path fill="#020f60" d="M283 316.415a5 5 0 115-5 5.006 5.006 0 01-5 5zm0-8.5a3.5 3.5 0 103.5 3.5 3.5 3.5 0 00-3.5-3.5z"/>
    <path fill="#020f60" d="M284.663 323.415h-3.326a1.734 1.734 0 01-1.681-1.351l-.421-1.872a9.2 9.2 0 01-1.954-1.135l-1.823.576a1.733 1.733 0 01-2.024-.789l-1.658-2.867a1.748 1.748 0 01.324-2.134l1.413-1.3a10.082 10.082 0 01-.067-1.128 10.321 10.321 0 01.063-1.129l-1.409-1.292a1.746 1.746 0 01-.333-2.131l1.668-2.885a1.734 1.734 0 012.017-.783l1.826.577a9.2 9.2 0 011.954-1.135l.422-1.874a1.733 1.733 0 011.683-1.348h3.326a1.734 1.734 0 011.681 1.351l.421 1.872a9.2 9.2 0 011.954 1.135l1.823-.576a1.735 1.735 0 012.024.789l1.658 2.867a1.748 1.748 0 01-.321 2.134l-1.413 1.3a10.148 10.148 0 010 2.258l1.41 1.291.007.006a1.744 1.744 0 01.326 2.125l-1.668 2.885a1.733 1.733 0 01-2.017.781l-1.826-.577a9.2 9.2 0 01-1.954 1.135l-.422 1.874a1.731 1.731 0 01-1.683 1.35zm-7.229-5.941a.75.75 0 01.477.171 7.7 7.7 0 002.229 1.293.749.749 0 01.472.539l.509 2.26a.225.225 0 00.217.178h3.326a.223.223 0 00.216-.176l.51-2.262a.749.749 0 01.472-.539 7.716 7.716 0 002.229-1.293.748.748 0 01.7-.137l2.2.695a.223.223 0 00.265-.092l1.668-2.885a.244.244 0 00-.048-.289l-1.684-1.552a.75.75 0 01-.234-.663 8.69 8.69 0 000-2.616.751.751 0 01.234-.663l1.692-1.556a.244.244 0 00.039-.294l-1.658-2.867a.226.226 0 00-.272-.1l-2.2.694a.749.749 0 01-.7-.137 7.7 7.7 0 00-2.229-1.293.749.749 0 01-.472-.539l-.509-2.26a.229.229 0 00-.219-.176h-3.327a.223.223 0 00-.216.176l-.51 2.262a.749.749 0 01-.472.539 7.716 7.716 0 00-2.229 1.293.757.757 0 01-.7.137l-2.2-.695a.227.227 0 00-.265.092l-1.672 2.885a.245.245 0 00.051.292l1.686 1.549a.75.75 0 01.234.663 9.022 9.022 0 00-.098 1.307 8.909 8.909 0 00.1 1.308.751.751 0 01-.234.663l-1.693 1.556a.244.244 0 00-.039.294l1.658 2.867a.23.23 0 00.272.1l2.2-.694a.73.73 0 01.226-.035z"/>
  </g>
</svg>