<svg xmlns="http://www.w3.org/2000/svg" viewBox="0 0 24 24">
  <g fill="#2fdf84" data-name="Group 9">
    <path d="M.75.75h2.5v2.5H.75Z" data-name="Path 54"/>
    <path d="M21.5 14.113a1.25 1.25 0 1 1 1.25-1.25 1.25 1.25 0 0 1-1.25 1.25Z" data-name="Path 55"/>
    <path d="m16.25 23-.884-6.632a1 1 0 0 0-.991-.868H9.626a1 1 0 0 0-.991.868L7.75 23Z" data-name="Path 56"/>
    <path d="M2.5 14.113a1.25 1.25 0 1 1 1.25-1.25 1.25 1.25 0 0 1-1.25 1.25Z" data-name="Path 57"/>
    <path d="M20.75.75h2.5v2.5h-2.5Z" data-name="Path 58"/>
  </g>
  <path fill="#f3f3f1" d="m13.757 15.75 2.493-3.65L12 2.25 7.75 12.1l2.493 3.65Z" data-name="Path 59"/>
  <path fill="#00b871" d="M.75.75H3v2.5H.75Z" data-name="Path 60"/>
  <path fill="#00b871" d="M22.5 12.865a1.223 1.223 0 0 1 .125-.526 1.25 1.25 0 1 0 0 1.052 1.223 1.223 0 0 1-.125-.526Z" data-name="Path 61"/>
  <path fill="#00b871" d="M11.875 15.5h-2.25a1 1 0 0 0-.991.868L7.75 23H10l.884-6.632a1 1 0 0 1 .991-.868Z" data-name="Path 62"/>
  <path fill="#00b871" d="M3.5 12.865a1.223 1.223 0 0 1 .125-.526 1.25 1.25 0 1 0 0 1.052 1.223 1.223 0 0 1-.125-.526Z" data-name="Path 63"/>
  <path fill="#00b871" d="M20.75.75H23v2.5h-2.25Z" data-name="Path 64"/>
  <path fill="#d5dbe1" d="M13.125 4.857 12 2.25 7.75 12.1l2.493 3.65h2.25L10 12.1Z" data-name="Path 65"/>
  <path fill="#020f60" d="M22.25 11.5h-1.5a8.75 8.75 0 0 0-17.5 0h-1.5a10.25 10.25 0 0 1 20.5 0Z" data-name="Path 66"/>
  <path fill="#020f60" d="M3.25 4H.75A.75.75 0 0 1 0 3.25V.75A.75.75 0 0 1 .75 0h2.5A.75.75 0 0 1 4 .75v2.5a.75.75 0 0 1-.75.75ZM1.5 2.5h1v-1h-1Z" data-name="Path 67"/>
  <path fill="#020f60" d="M21.5 14.864a2 2 0 1 1 2-2 2 2 0 0 1-2 2Zm0-2.5a.5.5 0 1 0 .5.5.5.5 0 0 0-.5-.5Z" data-name="Path 68"/>
  <path fill="#020f60" d="M3.5 1.25h17v1.5h-17Z" data-name="Path 69"/>
  <path fill="#020f60" d="m14.376 16.173-1.238-.846 2.26-3.309L12 4.143l-3.4 7.875 2.26 3.309-1.238.846-2.493-3.65a.749.749 0 0 1-.069-.72l4.25-9.85a.782.782 0 0 1 1.377 0l4.25 9.85a.749.749 0 0 1-.069.72Z" data-name="Path 70"/>
  <path fill="#020f60" d="m15.6 23.843-.983-7.376a.25.25 0 0 0-.248-.217H9.625a.251.251 0 0 0-.248.217l-.983 7.375-1.487-.2.983-7.376a1.757 1.757 0 0 1 1.735-1.516h4.749a1.755 1.755 0 0 1 1.734 1.518l.984 7.376Z" data-name="Path 71"/>
  <path fill="#020f60" d="M11.25 2.75h1.5V11h-1.5Z" data-name="Path 72"/>
  <path fill="#020f60" d="M2.5 14.864a2 2 0 1 1 2-2 2 2 0 0 1-2 2Zm0-2.5a.5.5 0 1 0 .5.5.5.5 0 0 0-.5-.5Z" data-name="Path 73"/>
  <path fill="#020f60" d="M23.25 4h-2.5a.75.75 0 0 1-.75-.75V.75a.75.75 0 0 1 .75-.75h2.5a.75.75 0 0 1 .75.75v2.5a.75.75 0 0 1-.75.75ZM21.5 2.5h1v-1h-1Z" data-name="Path 74"/>
  <path fill="#020f60" d="M0 22.515h24V24H0Z" data-name="Path 75"/>
</svg>
